<svg width="720" height="420" viewBox="0 0 720 420" fill="none" xmlns="http://www.w3.org/2000/svg"><defs><linearGradient id="g" x1="0" x2="1"><stop stop-color="#38CFFF"/><stop offset="1" stop-color="#0B2E6F"/></linearGradient></defs><rect width="720" height="420" rx="36" fill="#061B3A"/><circle cx="585" cy="95" r="58" fill="#38CFFF" opacity=".8"/><path d="M80 292h560" stroke="#6DB7E8" stroke-width="10" stroke-linecap="round"/><g transform="translate(110 140)"><rect width="160" height="105" rx="12" fill="#0B2E6F" stroke="#38CFFF" stroke-width="4"/><path d="M0 35h160M0 70h160M53 0v105M106 0v105" stroke="#38CFFF" opacity=".45" stroke-width="3"/></g><g transform="translate(300 160)"><rect width="160" height="105" rx="12" fill="#0B2E6F" stroke="#38CFFF" stroke-width="4"/><path d="M0 35h160M0 70h160M53 0v105M106 0v105" stroke="#38CFFF" opacity=".45" stroke-width="3"/></g><g transform="translate(490 140)"><rect width="120" height="105" rx="12" fill="#0B2E6F" stroke="#38CFFF" stroke-width="4"/><path d="M0 35h120M0 70h120M40 0v105M80 0v105" stroke="#38CFFF" opacity=".45" stroke-width="3"/></g><path d="M180 245v47M380 265v27M550 245v47" stroke="#6DB7E8" stroke-width="8"/><path d="M100 340c120-70 210-15 310-48 91-30 150-108 230-96" stroke="url(#g)" stroke-width="6" stroke-linecap="round" opacity=".75"/></svg>
